PathFileType	4	(X/Y/Z)	Patient4_TMGait_0pt5_01_left_04.trc.trc
DataRate	CameraRate	NumFrames	NumMarkers	Units	OrigDataRate	OrigDataStartFrame	OrigNumFrames
73.684210526316	73.684210526316	5	33	mm	73.684210526316	36	       141
Frame#	Time	L.ASIS			Sacral			L.Shoulder			Chest			R.Shoulder			Neck			R.ASIS			R.Thigh.Superior			R.Thigh.Lateral			R.Thigh.Inferior			R.Patella			L.Thigh.Superior			L.Thigh.Lateral			L.Thigh.Inferior			L.Patella			L.Shank.Superior			L.Shank.Lateral			L.Shank.Inferior			R.Shank.Superior			R.Shank.Lateral			R.Shank.Inferior			R.Heel			R.Midfoot.Superior			R.Midfoot.Lateral			R.Toe			L.Heel			L.Midfoot.Lateral			L.Midfoot.Superior			L.Toe			L.Elbow			L.Wrist			R.Elbow			R.Wrist			
		X1	Y1	Z1	X2	Y2	Z2	X3	Y3	Z3	X4	Y4	Z4	X5	Y5	Z5	X6	Y6	Z6	X7	Y7	Z7	X8	Y8	Z8	X9	Y9	Z9	X10	Y10	Z10	X11	Y11	Z11	X12	Y12	Z12	X13	Y13	Z13	X14	Y14	Z14	X15	Y15	Z15	X16	Y16	Z16	X17	Y17	Z17	X18	Y18	Z18	X19	Y19	Z19	X20	Y20	Z20	X21	Y21	Z21	X22	Y22	Z22	X23	Y23	Z23	X24	Y24	Z24	X25	Y25	Z25	X26	Y26	Z26	X27	Y27	Z27	X28	Y28	Z28	X29	Y29	Z29	X30	Y30	Z30	X31	Y31	Z31	X32	Y32	Z32	X33	Y33	Z33	

36	5.695000000000	725.575192858707	957.239254902409	344.313640668050	524.576971855384	1001.252282397174	518.600348381168	665.647211393312	1428.162872434489	323.226763071587	788.232231507855	1359.024446316237	470.566498441319	725.418228369416	1434.443356689639	653.106301023673	684.014284761110	1489.923871954665	472.155343287349	759.930197574521	931.305023246451	617.349004518288	756.700623608813	719.361208252011	591.242858497125	653.550590610665	626.034085912872	653.379410963703	714.832008518828	558.030420702216	574.507811651329	691.223384143836	463.587626557873	580.757637157648	802.137714206934	767.607154107374	384.039540036122	743.088507512190	639.507728466403	315.644582805383	835.835406527300	575.739447886299	384.670118492567	849.533075451911	503.690999841412	389.931819427705	831.792305750585	430.273436344195	378.132028689558	761.200657685983	307.863648184810	319.264210875182	822.295540745485	200.913073621163	388.039763288433	634.599787554617	387.492352465213	587.472561311498	534.916449204256	312.727121685120	652.501970574294	542.537379950329	209.009382285879	590.321311887105	364.324287081250	77.772908600019	563.267541047721	542.296972165025	102.131713529638	599.098701010590	445.363368967796	51.775527443615	634.954659438454	650.607141965657	36.139589183436	623.461004736818	706.655149507840	39.991276572689	417.411922597703	785.687917734296	37.485674640335	342.025908935678	867.741501470662	97.640971718619	372.981663720134	996.618645340757	43.156396790318	352.794202559890	566.476338443606	1084.642504602478	223.049759602156	615.665914062529	828.160649770223	202.234944124475	845.011264505028	1113.398065766016	765.303032000350	1084.019710170085	1094.957092543485	677.182218458365	
37	5.708571428571	726.359195755920	958.476023602624	341.223845734575	524.807717109583	1002.352396941107	514.890810603318	667.399120560336	1429.707243689975	321.122666996874	789.268081527032	1359.915171605076	468.771844201719	725.947258468110	1435.215475659670	651.134957233271	685.127941043666	1490.995665113262	470.245852350706	759.987546344062	932.186302299474	614.341099298298	757.814140433377	720.393255218581	589.207084049266	655.153546286209	626.754740686388	651.431905823362	717.690406684151	558.448675116421	573.513423614165	694.624118612427	462.825308352105	581.085208217870	802.675688177065	768.510003317648	381.136486817867	742.632956006434	639.970704422638	313.893431556132	835.393141562876	575.901470867682	382.440813970884	848.691601218526	503.696755104290	388.589796970845	830.086715000545	430.098940417003	377.266840849870	758.357000118368	308.400800080427	318.509172478549	817.491699930857	200.939237110737	387.962012916551	635.740886610300	387.668213599754	587.458967348458	533.959700152563	315.451075230038	652.155519537037	540.166174927095	210.987135920075	590.972086984075	359.203464235852	83.352687693236	563.906984596891	538.035459658831	102.962211633275	599.915977387085	439.633420830314	54.524426362686	635.268867084881	644.191642315143	36.181708766644	623.334695872583	700.065994989857	40.351207550272	417.446279421484	779.022230581480	37.763580996421	342.058006398515	861.138986815818	97.901283221203	372.870457061503	989.945439436466	43.066282921299	352.453789542514	570.196240284174	1086.067188018044	219.213574355845	625.525850069072	830.653776091512	198.812014384817	840.118010966554	1111.670453244640	763.870119442547	1079.754432318176	1078.258230557522	680.696516068854	
38	5.722142857143	727.109844148004	959.524078587016	338.069727650215	524.986518546260	1003.305209337625	511.119762262762	669.054270777372	1431.207364359824	319.046135341176	790.198553848808	1360.750977074306	466.995627101336	726.307174258222	1435.829182933627	649.207336117449	686.106254042675	1491.968972591899	468.387498514527	760.002707984794	933.012342656240	611.198990046803	759.263464325375	721.377794728904	587.155484815541	657.226700133479	627.304428748708	649.481027759441	721.115686856723	558.791632995809	572.493802226557	698.670356472139	461.935579049985	581.474526591845	803.023212664434	769.020974993401	377.788125820632	741.558657129053	640.111952902278	312.019833342844	834.494603170803	575.738068227040	379.886824414929	847.389390253472	503.486179711264	386.999037282566	827.929290927235	429.717723899669	376.216777792467	754.978506976621	308.667552682964	317.748832579643	812.400126226550	200.788045339403	387.804650352837	637.519596834086	387.757202618480	587.520019554102	533.622876775273	318.238885011943	651.807478160431	538.279726922026	213.045437289422	591.681597532208	354.445636681176	89.466131284663	564.644143824541	534.005427366577	103.720496424089	600.754993632628	434.075677311311	57.581920067012	635.627563925000	637.746937625121	36.225343426163	623.183466762115	693.256916213148	40.549706394829	417.468434883698	772.163041199916	37.864177386072	342.082503393735	854.372002824241	97.980086527463	372.786762104301	983.133550897725	42.792053434408	352.196076433068	573.703312552900	1087.569061125518	215.194899128191	635.643868586165	833.478989681153	195.348926602541	834.769834525057	1109.719169741222	762.279277026402	1074.250210562552	1060.723155835894	685.074627551233	
39	5.735714285714	727.814684768695	960.357538878747	334.883343947953	525.119876550130	1004.071701245490	507.341550330604	670.581241272397	1432.606646562369	316.999531364991	791.005962372366	1361.498867742339	465.240784444974	726.476488195965	1436.247438646716	647.329578922300	686.927920576407	1492.805546862501	466.572127018076	759.973147511877	933.736327574667	607.944672460809	761.125451057529	722.294951330254	585.055620510068	659.921235823148	627.633562368885	647.514467160426	725.239062992293	559.049491153090	571.377602643216	703.494547932641	460.906969668295	581.829345572982	803.155849061513	769.117090770232	374.144390873119	739.985913303109	639.970412812691	310.025643149730	833.139708604537	575.271155340828	377.159864257454	845.606314530447	503.052897294544	385.232380425329	825.328451855355	429.132998128529	375.005238099689	751.127022934109	308.665077936656	316.962535235464	807.067350510156	200.463287035269	387.567554433952	640.091224433561	387.744665458209	587.600273269456	534.086131815656	321.100116566608	651.448971060031	536.997817181615	215.219445704702	592.428682355775	350.198026528339	96.294308107574	565.507659875487	530.244215777222	104.449331600409	601.602741467546	428.772528877990	61.104871237335	636.056133328541	631.241256784488	36.195828362492	623.022932161384	686.292046423700	40.589354599237	417.463650280762	765.177017464871	37.807952947824	342.085387109145	847.494409960558	97.896231372451	372.736506874841	976.237080987955	42.377126789390	352.035931732576	576.981213148297	1089.089254216920	210.994239959312	645.957510473256	836.607403090940	191.837630686461	828.887165116982	1107.511438548868	760.532647407346	1067.272772634575	1042.563814695282	690.281105258213	
40	5.749285714286	728.447474907867	960.975557708409	331.691302262039	525.204797884388	1004.631643231475	503.612072321683	671.956979907405	1433.864258829633	314.988421919197	791.677945764441	1362.131346109418	463.511532270684	726.451194982060	1436.447850231305	645.508461359466	687.586315258313	1493.481517832176	464.795918690715	759.888200787630	934.327078092030	604.608690898468	763.459012057600	723.150612315051	582.858887353041	663.389748370465	627.717294620349	645.513101657730	730.187934385309	559.237681159950	570.082783449625	709.238925021316	459.753473184475	582.040870669768	803.055858815390	768.826900597543	370.367408012786	738.053145438150	639.611786952759	307.920017857858	831.354118190545	574.550612580326	374.401668961723	843.350489234051	502.413801160223	383.363408223653	822.313552539589	428.368443501722	373.661485345992	746.881768228742	308.420120913130	316.130387183964	801.541508454903	199.988594849426	387.252757503440	643.613269892372	387.638541584083	587.629386380579	535.535356237730	324.067433040240	651.064233124345	536.449680994786	217.570748633445	593.183132352430	346.639198129030	104.049109395380	566.513586827579	526.806934832347	105.233429963006	602.443363195265	423.832878286346	65.290551173579	636.575819057500	624.646390735230	36.014170310544	622.873607411327	679.238151634413	40.485331568117	417.422548061968	758.127944037936	37.627648874635	342.053776860964	840.552171221615	97.689652519498	372.713240491302	969.303039928672	41.892352319707	351.966886738297	580.045418774000	1090.577360396494	206.619593006254	656.405357304644	840.012387120175	188.274613133411	822.391037242184	1105.039541932623	758.654400883775	1058.609321145077	1024.008602546065	696.249559758451	
